<?xml version="1.0" encoding="UTF-8" standalone="no"?>
<!DOCTYPE svg PUBLIC "-//W3C//DTD SVG 1.1//EN"
 "http://www.w3.org/Graphics/SVG/1.1/DTD/svg11.dtd">
<!-- Generated by graphviz version 2.44.1 (20200629.0846)
 -->
<!-- Pages: 1 -->
<svg width="360pt" height="162pt"
 viewBox="0.00 0.00 360.00 162.07" xmlns="http://www.w3.org/2000/svg" xmlns:xlink="http://www.w3.org/1999/xlink">
<g id="graph0" class="graph" transform="scale(0.86 0.86) rotate(0) translate(4 184)">
<polygon fill="white" stroke="transparent" points="-4,4 -4,-184 413.59,-184 413.59,4 -4,4"/>
<!-- Winter (A) -->
<g id="node1" class="node">
<title>Winter (A)</title>
<ellipse fill="none" stroke="black" cx="181.44" cy="-162" rx="50.09" ry="18"/>
<text text-anchor="middle" x="181.44" y="-158.3" font-family="Times,serif" font-size="14.00">Winter (A)</text>
</g>
<!-- Sprinkler (B) -->
<g id="node2" class="node">
<title>Sprinkler (B)</title>
<ellipse fill="none" stroke="black" cx="60.44" cy="-90" rx="57.69" ry="18"/>
<text text-anchor="middle" x="60.44" y="-86.3" font-family="Times,serif" font-size="14.00">Sprinkler (B)</text>
</g>
<!-- Winter (A)&#45;&gt;Sprinkler (B) -->
<g id="edge1" class="edge">
<title>Winter (A)&#45;&gt;Sprinkler (B)</title>
<path fill="none" stroke="black" d="M156.08,-146.33C138.49,-136.15 114.84,-122.47 95.46,-111.26"/>
<polygon fill="black" stroke="black" points="97.02,-108.12 86.61,-106.14 93.52,-114.18 97.02,-108.12"/>
</g>
<!-- Rain (C) -->
<g id="node3" class="node">
<title>Rain (C)</title>
<ellipse fill="none" stroke="black" cx="303.44" cy="-90" rx="41.69" ry="18"/>
<text text-anchor="middle" x="303.44" y="-86.3" font-family="Times,serif" font-size="14.00">Rain (C)</text>
</g>
<!-- Winter (A)&#45;&gt;Rain (C) -->
<g id="edge2" class="edge">
<title>Winter (A)&#45;&gt;Rain (C)</title>
<path fill="none" stroke="black" d="M207.02,-146.33C225.44,-135.76 250.45,-121.4 270.39,-109.97"/>
<polygon fill="black" stroke="black" points="272.22,-112.95 279.15,-104.94 268.73,-106.88 272.22,-112.95"/>
</g>
<!-- Wet grass (D) -->
<g id="node4" class="node">
<title>Wet grass (D)</title>
<ellipse fill="none" stroke="black" cx="60.44" cy="-18" rx="60.39" ry="18"/>
<text text-anchor="middle" x="60.44" y="-14.3" font-family="Times,serif" font-size="14.00">Wet grass (D)</text>
</g>
<!-- Sprinkler (B)&#45;&gt;Wet grass (D) -->
<g id="edge3" class="edge">
<title>Sprinkler (B)&#45;&gt;Wet grass (D)</title>
<path fill="none" stroke="black" d="M60.44,-71.7C60.44,-63.98 60.44,-54.71 60.44,-46.11"/>
<polygon fill="black" stroke="black" points="63.94,-46.1 60.44,-36.1 56.94,-46.1 63.94,-46.1"/>
</g>
<!-- Rain (C)&#45;&gt;Wet grass (D) -->
<g id="edge4" class="edge">
<title>Rain (C)&#45;&gt;Wet grass (D)</title>
<path fill="none" stroke="black" d="M269.91,-79.34C229.19,-67.61 160.06,-47.7 112.42,-33.97"/>
<polygon fill="black" stroke="black" points="113.18,-30.55 102.6,-31.14 111.24,-37.27 113.18,-30.55"/>
</g>
<!-- Slippery road (E) -->
<g id="node5" class="node">
<title>Slippery road (E)</title>
<ellipse fill="none" stroke="black" cx="337.44" cy="-18" rx="72.29" ry="18"/>
<text text-anchor="middle" x="337.44" y="-14.3" font-family="Times,serif" font-size="14.00">Slippery road (E)</text>
</g>
<!-- Rain (C)&#45;&gt;Slippery road (E) -->
<g id="edge5" class="edge">
<title>Rain (C)&#45;&gt;Slippery road (E)</title>
<path fill="none" stroke="black" d="M311.68,-72.05C315.54,-64.09 320.25,-54.41 324.57,-45.51"/>
<polygon fill="black" stroke="black" points="327.83,-46.8 329.05,-36.28 321.54,-43.74 327.83,-46.8"/>
</g>
</g>
</svg>
